<?xml version="1.0" encoding="utf-8"?>
<!-- Generator: Adobe Illustrator 26.5.1, SVG Export Plug-In . SVG Version: 6.00 Build 0)  -->
<svg version="1.1" id="Camada_1" xmlns="http://www.w3.org/2000/svg" xmlns:xlink="http://www.w3.org/1999/xlink" x="0px" y="0px"
	 viewBox="0 0 1080 1080" style="enable-background:new 0 0 1080 1080;" xml:space="preserve">
<style type="text/css">
	.st0{fill:#06038D;}
	.st1{fill:#E0E0E0;}
	.st2{fill:#FFFFFF;}
</style>
<g>
	<g>
		<path class="st0" d="M120.1,300.89v163.29c0,12.88,10.44,23.33,23.33,23.33h62.32c12.37,0,24.24-4.92,32.99-13.67l196.29-196.29
			h-291.6C130.54,277.56,120.1,288.01,120.1,300.89z"/>
		<path class="st0" d="M936.57,67.61H664.3c-12.37,0-24.24,4.92-32.99,13.67L435.02,277.56h501.55c12.88,0,23.33-10.44,23.33-23.33
			V90.94C959.9,78.06,949.46,67.61,936.57,67.61z"/>
	</g>
	<path class="st0" d="M959.9,615.82v163.29c0,12.88-10.44,23.33-23.33,23.33h-291.6l196.29-196.29
		c8.75-8.75,20.62-13.67,32.99-13.67h62.32C949.46,592.49,959.9,602.93,959.9,615.82z"/>
	<path class="st0" d="M120.1,989.06V825.77c0-12.88,10.44-23.33,23.33-23.33h501.55L448.69,998.72
		c-8.75,8.75-20.62,13.67-32.99,13.67H143.43C130.54,1012.39,120.1,1001.94,120.1,989.06z"/>
	<g>
		<path class="st0" d="M120.1,726.62V563.33c0-12.88,10.44-23.33,23.33-23.33H540L343.71,736.29c-8.75,8.75-20.62,13.67-32.99,13.67
			h-167.3C130.54,749.95,120.1,739.51,120.1,726.62z"/>
		<path class="st0" d="M959.9,353.38v163.29c0,12.88-10.44,23.33-23.33,23.33H540l196.29-196.29c8.75-8.75,20.62-13.67,32.99-13.67
			h167.3C949.46,330.05,959.9,340.49,959.9,353.38z"/>
	</g>
</g>
</svg>
