<?xml version="1.0" encoding="utf-8"?>
<!-- Generator: Adobe Illustrator 26.5.1, SVG Export Plug-In . SVG Version: 6.00 Build 0)  -->
<svg version="1.1" id="Camada_1" xmlns="http://www.w3.org/2000/svg" xmlns:xlink="http://www.w3.org/1999/xlink" x="0px" y="0px"
	 viewBox="0 0 1920 300" style="enable-background:new 0 0 1920 300;" xml:space="preserve">
<style type="text/css">
	.st0{fill:#FFFFFF;}
	.st1{fill:#E0E0E0;}
	.st2{fill:#06038D;}
</style>
<g>
	<g>
		<path class="st2" d="M69.33,99.45v34.89c0,2.75,2.23,4.98,4.98,4.98h13.31c2.64,0,5.18-1.05,7.05-2.92l41.94-41.94h-62.3
			C71.56,94.46,69.33,96.69,69.33,99.45z"/>
		<path class="st2" d="M243.77,49.61H185.6c-2.64,0-5.18,1.05-7.05,2.92l-41.94,41.94h107.15c2.75,0,4.98-2.23,4.98-4.98V54.59
			C248.75,51.84,246.52,49.61,243.77,49.61z"/>
	</g>
	<path class="st2" d="M248.75,166.73v34.89c0,2.75-2.23,4.98-4.98,4.98h-62.3l41.94-41.94c1.87-1.87,4.4-2.92,7.05-2.92h13.31
		C246.52,161.74,248.75,163.98,248.75,166.73z"/>
	<path class="st2" d="M69.33,246.47v-34.89c0-2.75,2.23-4.98,4.98-4.98h107.15l-41.94,41.94c-1.87,1.87-4.4,2.92-7.05,2.92H74.32
		C71.56,251.45,69.33,249.22,69.33,246.47z"/>
	<g>
		<path class="st2" d="M69.33,190.4v-34.89c0-2.75,2.23-4.98,4.98-4.98h84.73l-41.94,41.94c-1.87,1.87-4.4,2.92-7.05,2.92H74.32
			C71.56,195.38,69.33,193.15,69.33,190.4z"/>
		<path class="st2" d="M248.75,110.66v34.89c0,2.75-2.23,4.98-4.98,4.98h-84.73l41.94-41.94c1.87-1.87,4.4-2.92,7.05-2.92h35.74
			C246.52,105.68,248.75,107.91,248.75,110.66z"/>
	</g>
	<g>
		<path class="st2" d="M316,206.61V49.67h109.86v19.06h-89.68v49.33h72.87v19.06h-72.87v50.44h89.68v19.06H316z"/>
		<path class="st2" d="M426.99,171.86h19.06c1.64,4.04,3.81,7.4,6.5,10.09c6.73,6.73,15.39,10.09,26.01,10.09
			c9.56,0,16.63-1.57,21.19-4.71c4.56-3.14,6.84-7.17,6.84-12.11c0-2.69-0.94-5.01-2.8-6.95c-1.87-1.94-4.9-3.66-9.08-5.16
			c-4.19-1.49-7.89-2.65-11.1-3.48c-3.21-0.82-7.89-1.83-14.01-3.03c-24.66-5.08-36.99-16.07-36.99-32.96
			c0-8.82,3.73-16.25,11.21-22.31c7.47-6.05,17.94-9.08,31.39-9.08c16.74,0,29.97,5.61,39.68,16.82c3.89,5.08,6.73,10.69,8.52,16.82
			h-19.06c-1.35-2.99-3.29-5.75-5.83-8.3c-5.68-5.68-13.45-8.52-23.32-8.52c-7.92,0-14.01,1.49-18.27,4.48
			c-4.26,2.99-6.39,6.35-6.39,10.09c0,2.69,0.93,5.01,2.8,6.95c1.87,1.94,4.89,3.66,9.08,5.16c4.18,1.49,7.88,2.65,11.1,3.48
			c3.21,0.82,7.88,1.83,14.01,3.03c24.66,5.08,36.99,16.07,36.99,32.96c0,9.57-4.04,17.57-12.11,23.99
			c-8.07,6.43-19.36,9.64-33.85,9.64c-18.24,0-32.29-6.13-42.15-18.38C432.22,185.09,429.08,178.89,426.99,171.86z"/>
		<path class="st2" d="M546.93,192.15c-10.47-11.13-15.7-25-15.7-41.59s5.23-30.45,15.7-41.59c10.46-11.13,23.17-16.7,38.11-16.7
			c9.42,0,17.41,1.79,23.99,5.38c6.58,3.59,11.28,7.4,14.12,11.43l2.02,3.36h0.22V49.67h17.94v156.94H625.4v-17.94h-0.22l-2.02,3.14
			c-2.69,4.04-7.33,7.89-13.9,11.55c-6.58,3.66-14.65,5.49-24.21,5.49C570.1,208.85,557.39,203.29,546.93,192.15z M560.05,120.74
			c-7.25,7.77-10.87,17.71-10.87,29.82c0,12.11,3.62,22.05,10.87,29.82c7.25,7.77,16.33,11.66,27.24,11.66
			c10.91,0,19.99-3.89,27.24-11.66c7.25-7.77,10.87-17.71,10.87-29.82c0-12.11-3.62-22.05-10.87-29.82
			c-7.25-7.77-16.33-11.66-27.24-11.66C576.38,109.08,567.3,112.97,560.05,120.74z"/>
		<path class="st2" d="M663.52,206.61V94.51h17.94v17.94h0.22c2.09-3.73,4.63-6.87,7.62-9.42c7.32-6.42,16.29-9.64,26.91-9.64h13.45
			v17.94h-13.45c-10.17,0-18.5,3.25-25,9.75c-6.5,6.5-9.75,14.83-9.75,25v60.54H663.52z"/>
		<path class="st2" d="M746.47,192.15c-10.47-11.13-15.7-25-15.7-41.59s5.23-30.45,15.7-41.59c10.46-11.13,23.17-16.7,38.11-16.7
			c9.42,0,17.37,1.79,23.88,5.38c6.5,3.59,11.25,7.47,14.24,11.66l2.02,3.36h0.22V94.51h17.94v112.1h-17.94v-17.94h-0.22l-2.02,3.14
			c-2.69,4.04-7.33,7.89-13.9,11.55c-6.58,3.66-14.65,5.49-24.21,5.49C769.64,208.85,756.93,203.29,746.47,192.15z M759.59,120.74
			c-7.25,7.77-10.87,17.71-10.87,29.82c0,12.11,3.62,22.05,10.87,29.82c7.25,7.77,16.33,11.66,27.24,11.66
			c10.91,0,19.99-3.89,27.24-11.66c7.25-7.77,10.87-17.71,10.87-29.82c0-12.11-3.62-22.05-10.87-29.82
			c-7.25-7.77-16.33-11.66-27.24-11.66C775.92,109.08,766.83,112.97,759.59,120.74z"/>
		<path class="st2" d="M855.21,171.86h19.06c1.64,4.04,3.81,7.4,6.5,10.09c6.73,6.73,15.39,10.09,26.01,10.09
			c9.56,0,16.63-1.57,21.19-4.71c4.56-3.14,6.84-7.17,6.84-12.11c0-2.69-0.94-5.01-2.8-6.95c-1.87-1.94-4.9-3.66-9.08-5.16
			c-4.19-1.49-7.89-2.65-11.1-3.48c-3.21-0.82-7.89-1.83-14.01-3.03c-24.66-5.08-36.99-16.07-36.99-32.96
			c0-8.82,3.73-16.25,11.21-22.31c7.47-6.05,17.94-9.08,31.39-9.08c16.74,0,29.97,5.61,39.68,16.82c3.89,5.08,6.73,10.69,8.52,16.82
			h-19.06c-1.35-2.99-3.29-5.75-5.83-8.3c-5.68-5.68-13.45-8.52-23.32-8.52c-7.92,0-14.01,1.49-18.27,4.48
			c-4.26,2.99-6.39,6.35-6.39,10.09c0,2.69,0.93,5.01,2.8,6.95c1.87,1.94,4.89,3.66,9.08,5.16c4.18,1.49,7.88,2.65,11.1,3.48
			c3.21,0.82,7.88,1.83,14.01,3.03c24.66,5.08,36.99,16.07,36.99,32.96c0,9.57-4.04,17.57-12.11,23.99
			c-8.07,6.43-19.36,9.64-33.85,9.64c-18.24,0-32.29-6.13-42.15-18.38C860.44,185.09,857.3,178.89,855.21,171.86z"/>
		<path class="st2" d="M1006.54,49.67h21.3l35.87,137.89h26.9l35.87-137.89h21.3l-41.48,156.94h-58.29L1006.54,49.67z"/>
		<path class="st2" d="M1159.01,192.15c-10.47-11.13-15.7-25-15.7-41.59s5.23-30.45,15.7-41.59c10.46-11.13,23.17-16.7,38.11-16.7
			c9.42,0,17.37,1.79,23.88,5.38c6.5,3.59,11.25,7.47,14.24,11.66l2.02,3.36h0.22V94.51h17.94v112.1h-17.94v-17.94h-0.22l-2.02,3.14
			c-2.69,4.04-7.33,7.89-13.9,11.55c-6.58,3.66-14.65,5.49-24.21,5.49C1182.17,208.85,1169.47,203.29,1159.01,192.15z
			 M1172.12,120.74c-7.25,7.77-10.87,17.71-10.87,29.82c0,12.11,3.62,22.05,10.87,29.82c7.25,7.77,16.33,11.66,27.24,11.66
			c10.91,0,19.99-3.89,27.24-11.66c7.25-7.77,10.87-17.71,10.87-29.82c0-12.11-3.62-22.05-10.87-29.82
			c-7.25-7.77-16.33-11.66-27.24-11.66C1188.45,109.08,1179.37,112.97,1172.12,120.74z"/>
		<path class="st2" d="M1275.59,206.61V49.67h17.94V189.8h25.78v16.82H1275.59z"/>
		<path class="st2" d="M1335.67,192.26c-10.91-11.06-16.37-24.96-16.37-41.7c0-16.74,5.46-30.64,16.37-41.7
			c10.91-11.06,24.51-16.59,40.81-16.59c16.29,0,29.89,5.46,40.81,16.37c10.91,10.91,16.37,24.52,16.37,40.81v6.73h-96.41
			c1.19,10.46,5.45,19.06,12.78,25.78c7.32,6.73,16.14,10.09,26.46,10.09c11.06,0,20.55-3.36,28.47-10.09
			c3.59-2.99,6.42-6.35,8.52-10.09h17.94c-2.69,7.03-6.5,13.23-11.43,18.61c-11.66,12.26-26.16,18.38-43.5,18.38
			C1360.19,208.85,1346.58,203.32,1335.67,192.26z M1337.69,140.47h76.9c-1.35-8.82-5.46-16.25-12.33-22.31
			c-6.88-6.05-15.47-9.08-25.78-9.08c-10.31,0-18.98,3.03-26.01,9.08C1343.44,124.22,1339.18,131.65,1337.69,140.47z"/>
		<path class="st2" d="M1447.1,206.61V94.51h17.94v16.82h0.22c2.24-3.59,5.16-6.73,8.74-9.42c8.22-6.43,17.94-9.64,29.15-9.64
			c13.6,0,24.47,4.3,32.62,12.89c8.14,8.6,12.22,20.37,12.22,35.31v66.14h-17.94v-65.02c0-10.76-2.69-18.87-8.07-24.33
			c-5.38-5.45-12.78-8.18-22.2-8.18c-10.31,0-18.69,3.4-25.11,10.2c-6.43,6.8-9.64,15.73-9.64,26.79v60.54H1447.1z"/>
		<path class="st2" d="M1556.96,111.32V94.51h14.57V69.85h17.94v24.66h35.87v16.82h-35.87v78.47h36.99v16.82h-54.93v-95.29H1556.96z
			"/>
		<path class="st2" d="M1637.9,69.62c-2.39-2.39-3.59-5.3-3.59-8.75c0-3.44,1.19-6.35,3.59-8.74c2.39-2.39,5.31-3.59,8.75-3.59
			c3.44,0,6.35,1.2,8.74,3.59c2.39,2.39,3.59,5.31,3.59,8.74c0,3.44-1.2,6.35-3.59,8.75c-2.39,2.39-5.31,3.59-8.74,3.59
			C1643.2,73.21,1640.29,72.01,1637.9,69.62z M1637.67,206.61V94.51h17.94v112.1H1637.67z"/>
		<path class="st2" d="M1675.79,206.61V94.51h17.94v16.82h0.22c1.94-3.44,4.71-6.58,8.3-9.42c8.22-6.43,17.71-9.64,28.47-9.64
			c11.21,0,20.55,3.74,28.03,11.21c3.29,3.29,5.9,7.03,7.85,11.21h1.12c2.24-3.89,5.38-7.62,9.42-11.21
			c8.67-7.47,19.36-11.21,32.06-11.21c12.11,0,22.05,4.34,29.82,13c7.77,8.67,11.66,20.4,11.66,35.2v66.14h-17.94v-65.02
			c0-10.46-2.43-18.5-7.29-24.1c-4.86-5.61-11.4-8.41-19.62-8.41c-8.97,0-16.82,3.44-23.54,10.31
			c-6.73,6.88-10.09,15.02-10.09,24.44v62.78h-17.94v-65.02c0-10.46-2.43-18.5-7.29-24.1c-4.86-5.61-11.4-8.41-19.62-8.41
			c-8.97,0-16.82,3.44-23.54,10.31c-6.73,6.88-10.09,15.02-10.09,24.44v62.78H1675.79z"/>
	</g>
</g>
</svg>
